<mxfile host="app.diagrams.net" agent="Mozilla/5.0 (X11; Linux x86_64; rv:134.0) Gecko/20100101 Firefox/134.0" version="26.0.10">
  <diagram id="C5RBs43oDa-KdzZeNtuy" name="Page-1">
    <mxGraphModel dx="1687" dy="887" grid="1" gridSize="10" guides="1" tooltips="1" connect="1" arrows="1" fold="1" page="1" pageScale="1" pageWidth="827" pageHeight="1169" math="0" shadow="0">
      <root>
        <mxCell id="WIyWlLk6GJQsqaUBKTNV-0" />
        <mxCell id="WIyWlLk6GJQsqaUBKTNV-1" parent="WIyWlLk6GJQsqaUBKTNV-0" />
        <mxCell id="mBD6U8SOB-PyUhgYIfZ1-2" value="" style="edgeStyle=orthogonalEdgeStyle;rounded=0;orthogonalLoop=1;jettySize=auto;html=1;" edge="1" parent="WIyWlLk6GJQsqaUBKTNV-1" source="mBD6U8SOB-PyUhgYIfZ1-0" target="mBD6U8SOB-PyUhgYIfZ1-1">
          <mxGeometry relative="1" as="geometry" />
        </mxCell>
        <mxCell id="mBD6U8SOB-PyUhgYIfZ1-0" value="Start" style="strokeWidth=2;html=1;shape=mxgraph.flowchart.start_2;whiteSpace=wrap;" vertex="1" parent="WIyWlLk6GJQsqaUBKTNV-1">
          <mxGeometry x="21" y="10" width="100" height="100" as="geometry" />
        </mxCell>
        <mxCell id="mBD6U8SOB-PyUhgYIfZ1-18" style="edgeStyle=orthogonalEdgeStyle;rounded=0;orthogonalLoop=1;jettySize=auto;html=1;exitX=0.5;exitY=1;exitDx=0;exitDy=0;entryX=0.5;entryY=0;entryDx=0;entryDy=0;" edge="1" parent="WIyWlLk6GJQsqaUBKTNV-1" source="mBD6U8SOB-PyUhgYIfZ1-1" target="mBD6U8SOB-PyUhgYIfZ1-17">
          <mxGeometry relative="1" as="geometry" />
        </mxCell>
        <mxCell id="mBD6U8SOB-PyUhgYIfZ1-1" value="Connect to bank database " style="whiteSpace=wrap;html=1;strokeWidth=2;" vertex="1" parent="WIyWlLk6GJQsqaUBKTNV-1">
          <mxGeometry x="11" y="210" width="120" height="60" as="geometry" />
        </mxCell>
        <mxCell id="mBD6U8SOB-PyUhgYIfZ1-22" value="Yes" style="edgeStyle=orthogonalEdgeStyle;rounded=0;orthogonalLoop=1;jettySize=auto;html=1;" edge="1" parent="WIyWlLk6GJQsqaUBKTNV-1" source="mBD6U8SOB-PyUhgYIfZ1-9" target="mBD6U8SOB-PyUhgYIfZ1-21">
          <mxGeometry relative="1" as="geometry" />
        </mxCell>
        <mxCell id="mBD6U8SOB-PyUhgYIfZ1-9" value="Is Card valid?" style="rhombus;whiteSpace=wrap;html=1;strokeWidth=2;rounded=1;arcSize=11;" vertex="1" parent="WIyWlLk6GJQsqaUBKTNV-1">
          <mxGeometry x="21" y="450" width="100" height="80" as="geometry" />
        </mxCell>
        <mxCell id="mBD6U8SOB-PyUhgYIfZ1-20" style="edgeStyle=orthogonalEdgeStyle;rounded=0;orthogonalLoop=1;jettySize=auto;html=1;exitX=0.5;exitY=0;exitDx=0;exitDy=0;exitPerimeter=0;entryX=0.75;entryY=0;entryDx=0;entryDy=0;" edge="1" parent="WIyWlLk6GJQsqaUBKTNV-1" source="mBD6U8SOB-PyUhgYIfZ1-13" target="mBD6U8SOB-PyUhgYIfZ1-17">
          <mxGeometry relative="1" as="geometry" />
        </mxCell>
        <mxCell id="mBD6U8SOB-PyUhgYIfZ1-13" value="Print &quot;Invalid cardID&quot;" style="strokeWidth=2;html=1;shape=mxgraph.flowchart.display;whiteSpace=wrap;" vertex="1" parent="WIyWlLk6GJQsqaUBKTNV-1">
          <mxGeometry x="191" y="460" width="100" height="60" as="geometry" />
        </mxCell>
        <mxCell id="mBD6U8SOB-PyUhgYIfZ1-15" value="No" style="edgeStyle=orthogonalEdgeStyle;rounded=0;orthogonalLoop=1;jettySize=auto;html=1;exitX=1;exitY=0.5;exitDx=0;exitDy=0;entryX=0;entryY=0.5;entryDx=0;entryDy=0;entryPerimeter=0;" edge="1" parent="WIyWlLk6GJQsqaUBKTNV-1" source="mBD6U8SOB-PyUhgYIfZ1-9" target="mBD6U8SOB-PyUhgYIfZ1-13">
          <mxGeometry relative="1" as="geometry" />
        </mxCell>
        <mxCell id="mBD6U8SOB-PyUhgYIfZ1-19" style="edgeStyle=orthogonalEdgeStyle;rounded=0;orthogonalLoop=1;jettySize=auto;html=1;exitX=0.5;exitY=1;exitDx=0;exitDy=0;entryX=0.5;entryY=0;entryDx=0;entryDy=0;" edge="1" parent="WIyWlLk6GJQsqaUBKTNV-1" source="mBD6U8SOB-PyUhgYIfZ1-17" target="mBD6U8SOB-PyUhgYIfZ1-9">
          <mxGeometry relative="1" as="geometry" />
        </mxCell>
        <mxCell id="mBD6U8SOB-PyUhgYIfZ1-17" value="&lt;span class=&quot;yKMVIe&quot; aria-level=&quot;1&quot; role=&quot;heading&quot;&gt;Receive card ID&lt;br&gt;&lt;/span&gt;" style="shape=parallelogram;html=1;strokeWidth=2;perimeter=parallelogramPerimeter;whiteSpace=wrap;rounded=1;arcSize=12;size=0.23;" vertex="1" parent="WIyWlLk6GJQsqaUBKTNV-1">
          <mxGeometry x="6" y="334.5" width="130" height="60" as="geometry" />
        </mxCell>
        <mxCell id="mBD6U8SOB-PyUhgYIfZ1-30" value="Withdraw" style="edgeStyle=orthogonalEdgeStyle;rounded=0;orthogonalLoop=1;jettySize=auto;html=1;exitX=0.5;exitY=1;exitDx=0;exitDy=0;entryX=0;entryY=0.5;entryDx=0;entryDy=0;" edge="1" parent="WIyWlLk6GJQsqaUBKTNV-1" source="mBD6U8SOB-PyUhgYIfZ1-21" target="mBD6U8SOB-PyUhgYIfZ1-35">
          <mxGeometry x="0.4284" relative="1" as="geometry">
            <mxPoint x="155" y="760" as="targetPoint" />
            <Array as="points">
              <mxPoint x="71" y="760" />
            </Array>
            <mxPoint as="offset" />
          </mxGeometry>
        </mxCell>
        <mxCell id="mBD6U8SOB-PyUhgYIfZ1-31" value="Deposit" style="edgeStyle=orthogonalEdgeStyle;rounded=0;orthogonalLoop=1;jettySize=auto;html=1;exitX=0.5;exitY=1;exitDx=0;exitDy=0;entryX=0;entryY=0.5;entryDx=0;entryDy=0;" edge="1" parent="WIyWlLk6GJQsqaUBKTNV-1" source="mBD6U8SOB-PyUhgYIfZ1-21" target="mBD6U8SOB-PyUhgYIfZ1-36">
          <mxGeometry x="0.6788" relative="1" as="geometry">
            <mxPoint x="155" y="880" as="targetPoint" />
            <Array as="points">
              <mxPoint x="71" y="880" />
            </Array>
            <mxPoint as="offset" />
          </mxGeometry>
        </mxCell>
        <mxCell id="mBD6U8SOB-PyUhgYIfZ1-32" value="&lt;div&gt;Transfer&lt;/div&gt;" style="edgeStyle=orthogonalEdgeStyle;rounded=0;orthogonalLoop=1;jettySize=auto;html=1;exitX=0.5;exitY=1;exitDx=0;exitDy=0;entryX=0;entryY=0.5;entryDx=0;entryDy=0;" edge="1" parent="WIyWlLk6GJQsqaUBKTNV-1" source="mBD6U8SOB-PyUhgYIfZ1-21" target="mBD6U8SOB-PyUhgYIfZ1-37">
          <mxGeometry x="0.7766" relative="1" as="geometry">
            <mxPoint x="155" y="1000" as="targetPoint" />
            <Array as="points">
              <mxPoint x="71" y="1000" />
            </Array>
            <mxPoint as="offset" />
          </mxGeometry>
        </mxCell>
        <mxCell id="mBD6U8SOB-PyUhgYIfZ1-33" value="Check Balance" style="edgeStyle=orthogonalEdgeStyle;rounded=0;orthogonalLoop=1;jettySize=auto;html=1;exitX=0.5;exitY=1;exitDx=0;exitDy=0;entryX=0;entryY=0.5;entryDx=0;entryDy=0;" edge="1" parent="WIyWlLk6GJQsqaUBKTNV-1" source="mBD6U8SOB-PyUhgYIfZ1-21" target="mBD6U8SOB-PyUhgYIfZ1-38">
          <mxGeometry x="0.751" relative="1" as="geometry">
            <mxPoint x="155" y="1120" as="targetPoint" />
            <Array as="points">
              <mxPoint x="71" y="1120" />
            </Array>
            <mxPoint as="offset" />
          </mxGeometry>
        </mxCell>
        <mxCell id="mBD6U8SOB-PyUhgYIfZ1-21" value="Select Action" style="rhombus;whiteSpace=wrap;html=1;strokeWidth=2;rounded=1;arcSize=11;" vertex="1" parent="WIyWlLk6GJQsqaUBKTNV-1">
          <mxGeometry x="21" y="610" width="100" height="80" as="geometry" />
        </mxCell>
        <mxCell id="mBD6U8SOB-PyUhgYIfZ1-40" value="" style="edgeStyle=orthogonalEdgeStyle;rounded=0;orthogonalLoop=1;jettySize=auto;html=1;" edge="1" parent="WIyWlLk6GJQsqaUBKTNV-1" source="mBD6U8SOB-PyUhgYIfZ1-35" target="mBD6U8SOB-PyUhgYIfZ1-39">
          <mxGeometry relative="1" as="geometry" />
        </mxCell>
        <mxCell id="mBD6U8SOB-PyUhgYIfZ1-35" value="Enter Amount" style="shape=parallelogram;html=1;strokeWidth=2;perimeter=parallelogramPerimeter;whiteSpace=wrap;rounded=1;arcSize=12;size=0.23;" vertex="1" parent="WIyWlLk6GJQsqaUBKTNV-1">
          <mxGeometry x="165" y="730" width="116" height="60" as="geometry" />
        </mxCell>
        <mxCell id="mBD6U8SOB-PyUhgYIfZ1-42" value="" style="edgeStyle=orthogonalEdgeStyle;rounded=0;orthogonalLoop=1;jettySize=auto;html=1;" edge="1" parent="WIyWlLk6GJQsqaUBKTNV-1" source="mBD6U8SOB-PyUhgYIfZ1-36" target="mBD6U8SOB-PyUhgYIfZ1-41">
          <mxGeometry relative="1" as="geometry" />
        </mxCell>
        <mxCell id="mBD6U8SOB-PyUhgYIfZ1-36" value="Enter Amount" style="shape=parallelogram;html=1;strokeWidth=2;perimeter=parallelogramPerimeter;whiteSpace=wrap;rounded=1;arcSize=12;size=0.23;" vertex="1" parent="WIyWlLk6GJQsqaUBKTNV-1">
          <mxGeometry x="155" y="850" width="116" height="60" as="geometry" />
        </mxCell>
        <mxCell id="mBD6U8SOB-PyUhgYIfZ1-66" style="edgeStyle=orthogonalEdgeStyle;rounded=0;orthogonalLoop=1;jettySize=auto;html=1;exitX=1;exitY=0.5;exitDx=0;exitDy=0;entryX=0;entryY=0.5;entryDx=0;entryDy=0;" edge="1" parent="WIyWlLk6GJQsqaUBKTNV-1" source="mBD6U8SOB-PyUhgYIfZ1-37" target="mBD6U8SOB-PyUhgYIfZ1-65">
          <mxGeometry relative="1" as="geometry" />
        </mxCell>
        <mxCell id="mBD6U8SOB-PyUhgYIfZ1-37" value="Enter Destination CardID" style="shape=parallelogram;html=1;strokeWidth=2;perimeter=parallelogramPerimeter;whiteSpace=wrap;rounded=1;arcSize=12;size=0.23;" vertex="1" parent="WIyWlLk6GJQsqaUBKTNV-1">
          <mxGeometry x="126" y="965" width="130" height="70" as="geometry" />
        </mxCell>
        <mxCell id="mBD6U8SOB-PyUhgYIfZ1-72" style="edgeStyle=orthogonalEdgeStyle;rounded=0;orthogonalLoop=1;jettySize=auto;html=1;exitX=1;exitY=0.5;exitDx=0;exitDy=0;entryX=0;entryY=0.5;entryDx=0;entryDy=0;" edge="1" parent="WIyWlLk6GJQsqaUBKTNV-1" source="mBD6U8SOB-PyUhgYIfZ1-38" target="mBD6U8SOB-PyUhgYIfZ1-54">
          <mxGeometry relative="1" as="geometry" />
        </mxCell>
        <mxCell id="mBD6U8SOB-PyUhgYIfZ1-38" value="Enter Password" style="shape=parallelogram;html=1;strokeWidth=2;perimeter=parallelogramPerimeter;whiteSpace=wrap;rounded=1;arcSize=12;size=0.23;" vertex="1" parent="WIyWlLk6GJQsqaUBKTNV-1">
          <mxGeometry x="256" y="1090" width="135" height="60" as="geometry" />
        </mxCell>
        <mxCell id="mBD6U8SOB-PyUhgYIfZ1-44" value="" style="edgeStyle=orthogonalEdgeStyle;rounded=0;orthogonalLoop=1;jettySize=auto;html=1;" edge="1" parent="WIyWlLk6GJQsqaUBKTNV-1" source="mBD6U8SOB-PyUhgYIfZ1-39" target="mBD6U8SOB-PyUhgYIfZ1-43">
          <mxGeometry relative="1" as="geometry" />
        </mxCell>
        <mxCell id="mBD6U8SOB-PyUhgYIfZ1-39" value="Enter Password" style="shape=parallelogram;html=1;strokeWidth=2;perimeter=parallelogramPerimeter;whiteSpace=wrap;rounded=1;arcSize=12;size=0.23;" vertex="1" parent="WIyWlLk6GJQsqaUBKTNV-1">
          <mxGeometry x="361" y="730" width="116" height="60" as="geometry" />
        </mxCell>
        <mxCell id="mBD6U8SOB-PyUhgYIfZ1-50" style="edgeStyle=orthogonalEdgeStyle;rounded=0;orthogonalLoop=1;jettySize=auto;html=1;exitX=1;exitY=0.5;exitDx=0;exitDy=0;entryX=0;entryY=0.5;entryDx=0;entryDy=0;" edge="1" parent="WIyWlLk6GJQsqaUBKTNV-1" source="mBD6U8SOB-PyUhgYIfZ1-41" target="mBD6U8SOB-PyUhgYIfZ1-49">
          <mxGeometry relative="1" as="geometry" />
        </mxCell>
        <mxCell id="mBD6U8SOB-PyUhgYIfZ1-41" value="Enter Password" style="shape=parallelogram;html=1;strokeWidth=2;perimeter=parallelogramPerimeter;whiteSpace=wrap;rounded=1;arcSize=12;size=0.23;" vertex="1" parent="WIyWlLk6GJQsqaUBKTNV-1">
          <mxGeometry x="335" y="850" width="116" height="60" as="geometry" />
        </mxCell>
        <mxCell id="mBD6U8SOB-PyUhgYIfZ1-46" value="Yes " style="edgeStyle=orthogonalEdgeStyle;rounded=0;orthogonalLoop=1;jettySize=auto;html=1;" edge="1" parent="WIyWlLk6GJQsqaUBKTNV-1" source="mBD6U8SOB-PyUhgYIfZ1-43" target="mBD6U8SOB-PyUhgYIfZ1-45">
          <mxGeometry relative="1" as="geometry" />
        </mxCell>
        <mxCell id="mBD6U8SOB-PyUhgYIfZ1-43" value="Is Password Correct?" style="rhombus;whiteSpace=wrap;html=1;strokeWidth=2;rounded=1;arcSize=12;" vertex="1" parent="WIyWlLk6GJQsqaUBKTNV-1">
          <mxGeometry x="551" y="720" width="110" height="80" as="geometry" />
        </mxCell>
        <mxCell id="mBD6U8SOB-PyUhgYIfZ1-45" value="Withdraw Funds" style="whiteSpace=wrap;html=1;strokeWidth=2;rounded=1;arcSize=12;" vertex="1" parent="WIyWlLk6GJQsqaUBKTNV-1">
          <mxGeometry x="700" y="730" width="120" height="60" as="geometry" />
        </mxCell>
        <mxCell id="mBD6U8SOB-PyUhgYIfZ1-56" style="edgeStyle=orthogonalEdgeStyle;rounded=0;orthogonalLoop=1;jettySize=auto;html=1;exitX=0.5;exitY=0;exitDx=0;exitDy=0;exitPerimeter=0;entryX=0.75;entryY=0;entryDx=0;entryDy=0;" edge="1" parent="WIyWlLk6GJQsqaUBKTNV-1" source="mBD6U8SOB-PyUhgYIfZ1-47" target="mBD6U8SOB-PyUhgYIfZ1-17">
          <mxGeometry relative="1" as="geometry" />
        </mxCell>
        <mxCell id="mBD6U8SOB-PyUhgYIfZ1-47" value="Print &quot;Wrong Password&quot;" style="strokeWidth=2;html=1;shape=mxgraph.flowchart.display;whiteSpace=wrap;" vertex="1" parent="WIyWlLk6GJQsqaUBKTNV-1">
          <mxGeometry x="651" y="460" width="100" height="60" as="geometry" />
        </mxCell>
        <mxCell id="mBD6U8SOB-PyUhgYIfZ1-48" style="edgeStyle=orthogonalEdgeStyle;rounded=0;orthogonalLoop=1;jettySize=auto;html=1;exitX=0.5;exitY=0;exitDx=0;exitDy=0;entryX=0;entryY=0.5;entryDx=0;entryDy=0;entryPerimeter=0;" edge="1" parent="WIyWlLk6GJQsqaUBKTNV-1" source="mBD6U8SOB-PyUhgYIfZ1-43" target="mBD6U8SOB-PyUhgYIfZ1-47">
          <mxGeometry relative="1" as="geometry" />
        </mxCell>
        <mxCell id="mBD6U8SOB-PyUhgYIfZ1-64" value="Yes" style="edgeStyle=orthogonalEdgeStyle;rounded=0;orthogonalLoop=1;jettySize=auto;html=1;exitX=1;exitY=0.5;exitDx=0;exitDy=0;entryX=0;entryY=0.5;entryDx=0;entryDy=0;" edge="1" parent="WIyWlLk6GJQsqaUBKTNV-1" source="mBD6U8SOB-PyUhgYIfZ1-49" target="mBD6U8SOB-PyUhgYIfZ1-63">
          <mxGeometry relative="1" as="geometry" />
        </mxCell>
        <mxCell id="mBD6U8SOB-PyUhgYIfZ1-49" value="Is Password Correct?" style="rhombus;whiteSpace=wrap;html=1;strokeWidth=2;rounded=1;arcSize=12;" vertex="1" parent="WIyWlLk6GJQsqaUBKTNV-1">
          <mxGeometry x="551" y="840" width="110" height="80" as="geometry" />
        </mxCell>
        <mxCell id="mBD6U8SOB-PyUhgYIfZ1-51" style="edgeStyle=orthogonalEdgeStyle;rounded=0;orthogonalLoop=1;jettySize=auto;html=1;exitX=0.5;exitY=0;exitDx=0;exitDy=0;entryX=0;entryY=0.5;entryDx=0;entryDy=0;entryPerimeter=0;" edge="1" parent="WIyWlLk6GJQsqaUBKTNV-1" source="mBD6U8SOB-PyUhgYIfZ1-49" target="mBD6U8SOB-PyUhgYIfZ1-47">
          <mxGeometry relative="1" as="geometry">
            <Array as="points">
              <mxPoint x="606" y="820" />
              <mxPoint x="531" y="820" />
              <mxPoint x="531" y="490" />
            </Array>
          </mxGeometry>
        </mxCell>
        <mxCell id="mBD6U8SOB-PyUhgYIfZ1-71" value="Yes" style="edgeStyle=orthogonalEdgeStyle;rounded=0;orthogonalLoop=1;jettySize=auto;html=1;exitX=1;exitY=0.5;exitDx=0;exitDy=0;entryX=0;entryY=0.5;entryDx=0;entryDy=0;" edge="1" parent="WIyWlLk6GJQsqaUBKTNV-1" source="mBD6U8SOB-PyUhgYIfZ1-52" target="mBD6U8SOB-PyUhgYIfZ1-70">
          <mxGeometry relative="1" as="geometry" />
        </mxCell>
        <mxCell id="mBD6U8SOB-PyUhgYIfZ1-52" value="Is Password Correct?" style="rhombus;whiteSpace=wrap;html=1;strokeWidth=2;rounded=1;arcSize=12;" vertex="1" parent="WIyWlLk6GJQsqaUBKTNV-1">
          <mxGeometry x="551" y="960" width="100" height="80" as="geometry" />
        </mxCell>
        <mxCell id="mBD6U8SOB-PyUhgYIfZ1-53" style="edgeStyle=orthogonalEdgeStyle;rounded=0;orthogonalLoop=1;jettySize=auto;html=1;exitX=0.5;exitY=0;exitDx=0;exitDy=0;entryX=0;entryY=0.5;entryDx=0;entryDy=0;entryPerimeter=0;" edge="1" parent="WIyWlLk6GJQsqaUBKTNV-1" source="mBD6U8SOB-PyUhgYIfZ1-52" target="mBD6U8SOB-PyUhgYIfZ1-47">
          <mxGeometry relative="1" as="geometry">
            <Array as="points">
              <mxPoint x="601" y="950" />
              <mxPoint x="531" y="950" />
              <mxPoint x="531" y="490" />
            </Array>
          </mxGeometry>
        </mxCell>
        <mxCell id="mBD6U8SOB-PyUhgYIfZ1-54" value="Is Password Correct?" style="rhombus;whiteSpace=wrap;html=1;strokeWidth=2;rounded=1;arcSize=12;" vertex="1" parent="WIyWlLk6GJQsqaUBKTNV-1">
          <mxGeometry x="551" y="1080" width="110" height="80" as="geometry" />
        </mxCell>
        <mxCell id="mBD6U8SOB-PyUhgYIfZ1-55" style="edgeStyle=orthogonalEdgeStyle;rounded=0;orthogonalLoop=1;jettySize=auto;html=1;exitX=0.5;exitY=0;exitDx=0;exitDy=0;entryX=0;entryY=0.5;entryDx=0;entryDy=0;entryPerimeter=0;" edge="1" parent="WIyWlLk6GJQsqaUBKTNV-1" source="mBD6U8SOB-PyUhgYIfZ1-54" target="mBD6U8SOB-PyUhgYIfZ1-47">
          <mxGeometry relative="1" as="geometry">
            <Array as="points">
              <mxPoint x="606" y="1060" />
              <mxPoint x="531" y="1060" />
              <mxPoint x="531" y="490" />
            </Array>
          </mxGeometry>
        </mxCell>
        <mxCell id="mBD6U8SOB-PyUhgYIfZ1-61" value="Print Current Balance" style="strokeWidth=2;html=1;shape=mxgraph.flowchart.display;whiteSpace=wrap;" vertex="1" parent="WIyWlLk6GJQsqaUBKTNV-1">
          <mxGeometry x="710" y="1090" width="100" height="60" as="geometry" />
        </mxCell>
        <mxCell id="mBD6U8SOB-PyUhgYIfZ1-62" value="Yes" style="edgeStyle=orthogonalEdgeStyle;rounded=0;orthogonalLoop=1;jettySize=auto;html=1;exitX=1;exitY=0.5;exitDx=0;exitDy=0;entryX=0;entryY=0.5;entryDx=0;entryDy=0;entryPerimeter=0;" edge="1" parent="WIyWlLk6GJQsqaUBKTNV-1" source="mBD6U8SOB-PyUhgYIfZ1-54" target="mBD6U8SOB-PyUhgYIfZ1-61">
          <mxGeometry relative="1" as="geometry" />
        </mxCell>
        <mxCell id="mBD6U8SOB-PyUhgYIfZ1-63" value="Deposit Funds" style="whiteSpace=wrap;html=1;strokeWidth=2;rounded=1;arcSize=12;" vertex="1" parent="WIyWlLk6GJQsqaUBKTNV-1">
          <mxGeometry x="700" y="850" width="120" height="60" as="geometry" />
        </mxCell>
        <mxCell id="mBD6U8SOB-PyUhgYIfZ1-68" style="edgeStyle=orthogonalEdgeStyle;rounded=0;orthogonalLoop=1;jettySize=auto;html=1;exitX=1;exitY=0.5;exitDx=0;exitDy=0;entryX=0;entryY=0.5;entryDx=0;entryDy=0;" edge="1" parent="WIyWlLk6GJQsqaUBKTNV-1" source="mBD6U8SOB-PyUhgYIfZ1-65" target="mBD6U8SOB-PyUhgYIfZ1-67">
          <mxGeometry relative="1" as="geometry" />
        </mxCell>
        <mxCell id="mBD6U8SOB-PyUhgYIfZ1-65" value="Enter Amount" style="shape=parallelogram;html=1;strokeWidth=2;perimeter=parallelogramPerimeter;whiteSpace=wrap;rounded=1;arcSize=12;size=0.23;" vertex="1" parent="WIyWlLk6GJQsqaUBKTNV-1">
          <mxGeometry x="261" y="970" width="116" height="60" as="geometry" />
        </mxCell>
        <mxCell id="mBD6U8SOB-PyUhgYIfZ1-69" style="edgeStyle=orthogonalEdgeStyle;rounded=0;orthogonalLoop=1;jettySize=auto;html=1;exitX=1;exitY=0.5;exitDx=0;exitDy=0;entryX=0;entryY=0.5;entryDx=0;entryDy=0;" edge="1" parent="WIyWlLk6GJQsqaUBKTNV-1" source="mBD6U8SOB-PyUhgYIfZ1-67" target="mBD6U8SOB-PyUhgYIfZ1-52">
          <mxGeometry relative="1" as="geometry" />
        </mxCell>
        <mxCell id="mBD6U8SOB-PyUhgYIfZ1-67" value="Enter Password" style="shape=parallelogram;html=1;strokeWidth=2;perimeter=parallelogramPerimeter;whiteSpace=wrap;rounded=1;arcSize=12;size=0.23;" vertex="1" parent="WIyWlLk6GJQsqaUBKTNV-1">
          <mxGeometry x="381" y="970" width="116" height="60" as="geometry" />
        </mxCell>
        <mxCell id="mBD6U8SOB-PyUhgYIfZ1-70" value="Transfer Funds" style="whiteSpace=wrap;html=1;strokeWidth=2;rounded=1;arcSize=12;" vertex="1" parent="WIyWlLk6GJQsqaUBKTNV-1">
          <mxGeometry x="700" y="970" width="120" height="60" as="geometry" />
        </mxCell>
      </root>
    </mxGraphModel>
  </diagram>
</mxfile>
